<?xml version="1.0" encoding="UTF-8"?>
<svg xmlns="http://www.w3.org/2000/svg" xmlns:xlink="http://www.w3.org/1999/xlink" viewBox="0 0 60 60" width="60px" height="60px">
<g id="surface12848540">
<path style=" stroke:none;fill-rule:evenodd;fill:rgb(100%,100%,100%);fill-opacity:1;" d="M 46.800781 48 L 30 52.800781 L 13.199219 48 L 9.601562 7.199219 L 50.398438 7.199219 C 49.199219 20.796875 48 34.402344 46.800781 48 Z M 47.78125 9.601562 L 12.21875 9.601562 L 15.445312 46.144531 L 30 50.304688 L 44.554688 46.144531 Z M 20.160156 33.601562 L 24.960938 33.601562 L 25.078125 36.601562 L 30 38.277344 L 34.921875 36.601562 L 35.277344 31.199219 L 24.722656 31.199219 L 24.476562 26.398438 L 35.523438 26.398438 L 35.878906 21.601562 L 19.320312 21.601562 L 18.960938 16.800781 L 40.921875 16.800781 L 40.320312 26.398438 L 39.476562 40.199219 L 30 43.320312 L 20.523438 40.199219 Z M 20.160156 33.601562 "/>
</g>
</svg>
