<?xml version="1.0" encoding="UTF-8"?>
<svg xmlns="http://www.w3.org/2000/svg" xmlns:xlink="http://www.w3.org/1999/xlink" viewBox="0 0 60 60" width="60px" height="60px">
<g id="surface8769004">
<path style=" stroke:none;fill-rule:nonzero;fill:rgb(100%,100%,100%);fill-opacity:1;" d="M 6.601562 8.398438 C 3.625 8.398438 1.199219 10.824219 1.199219 13.800781 L 1.199219 14.3125 L 30 34.800781 L 58.800781 14.3125 L 58.800781 13.800781 C 58.800781 10.824219 56.375 8.398438 53.398438 8.398438 Z M 7.621094 10.800781 L 52.375 10.800781 L 30 26.398438 Z M 1.199219 16.832031 L 1.199219 46.199219 C 1.199219 49.175781 3.625 51.601562 6.601562 51.601562 L 53.398438 51.601562 C 56.375 51.601562 58.800781 49.175781 58.800781 46.199219 L 58.800781 16.832031 L 51.601562 21.957031 L 51.601562 49.199219 L 8.398438 49.199219 L 8.398438 21.957031 Z M 1.199219 16.832031 "/>
</g>
</svg>
