<?xml version="1.0" encoding="UTF-8"?>
<svg xmlns="http://www.w3.org/2000/svg" xmlns:xlink="http://www.w3.org/1999/xlink" viewBox="0 0 60 60" width="60px" height="60px">
<g id="surface8750574">
<path style=" stroke:none;fill-rule:nonzero;fill:rgb(100%,100%,100%);fill-opacity:1;" d="M 20.625 6.25 C 12.707031 6.25 6.25 12.707031 6.25 20.625 L 6.25 39.375 C 6.25 47.289062 12.707031 53.75 20.625 53.75 L 39.375 53.75 C 47.292969 53.75 53.75 47.292969 53.75 39.375 L 53.75 20.625 C 53.75 12.707031 47.289062 6.25 39.375 6.25 Z M 20.625 10 L 39.375 10 C 45.265625 10 50 14.734375 50 20.625 L 50 39.375 C 50 45.265625 45.265625 50 39.375 50 L 20.625 50 C 14.734375 50 10 45.265625 10 39.375 L 10 20.625 C 10 14.734375 14.734375 10 20.625 10 Z M 42.5 15 C 41.117188 15 40 16.117188 40 17.5 C 40 18.882812 41.117188 20 42.5 20 C 43.882812 20 45 18.882812 45 17.5 C 45 16.117188 43.882812 15 42.5 15 Z M 30 17.5 C 23.117188 17.5 17.5 23.117188 17.5 30 C 17.5 36.882812 23.117188 42.5 30 42.5 C 36.882812 42.5 42.5 36.882812 42.5 30 C 42.5 23.117188 36.882812 17.5 30 17.5 Z M 30 21.25 C 34.855469 21.25 38.75 25.144531 38.75 30 C 38.75 34.855469 34.855469 38.75 30 38.75 C 25.144531 38.75 21.25 34.855469 21.25 30 C 21.25 25.144531 25.144531 21.25 30 21.25 Z M 30 21.25 "/>
</g>
</svg>
