<?xml version="1.0" encoding="UTF-8"?>
<svg xmlns="http://www.w3.org/2000/svg" xmlns:xlink="http://www.w3.org/1999/xlink" viewBox="0 0 60 60" width="60px" height="60px">
<g id="surface12850762">
<path style=" stroke:none;fill-rule:nonzero;fill:rgb(100%,100%,100%);fill-opacity:1;" d="M 6.558594 2.398438 C 6.222656 2.398438 5.898438 2.542969 5.671875 2.789062 C 5.445312 3.039062 5.332031 3.371094 5.363281 3.707031 L 9.585938 51.019531 C 9.628906 51.511719 9.972656 51.929688 10.449219 52.066406 L 29.664062 57.554688 C 29.878906 57.613281 30.105469 57.613281 30.320312 57.554688 L 49.550781 52.066406 C 50.027344 51.929688 50.371094 51.511719 50.417969 51.019531 L 54.636719 3.707031 C 54.667969 3.371094 54.554688 3.039062 54.328125 2.789062 C 54.101562 2.542969 53.777344 2.398438 53.441406 2.398438 Z M 7.871094 4.800781 L 52.128906 4.800781 L 48.101562 49.984375 L 29.992188 55.152344 L 11.902344 49.984375 Z M 22.800781 12 C 22.136719 12 21.601562 12.539062 21.601562 13.199219 L 21.601562 35.554688 L 14.722656 33.648438 C 14.359375 33.550781 13.972656 33.625 13.675781 33.851562 C 13.375 34.078125 13.199219 34.429688 13.199219 34.804688 L 13.199219 40.738281 C 13.199219 41.277344 13.558594 41.75 14.078125 41.894531 L 27.277344 45.554688 C 27.640625 45.65625 28.027344 45.582031 28.324219 45.355469 C 28.625 45.128906 28.800781 44.773438 28.800781 44.398438 L 28.800781 13.199219 C 28.800781 12.539062 28.261719 12 27.601562 12 Z M 32.398438 12 C 31.738281 12 31.199219 12.539062 31.199219 13.199219 L 31.199219 33.601562 C 31.199219 33.953125 31.355469 34.289062 31.625 34.519531 C 31.898438 34.746094 32.253906 34.84375 32.605469 34.785156 L 39.5 33.59375 L 39.359375 35.722656 L 32.082031 37.722656 C 31.5625 37.867188 31.199219 38.339844 31.199219 38.878906 L 31.199219 44.398438 C 31.199219 44.773438 31.375 45.128906 31.671875 45.355469 C 31.96875 45.582031 32.359375 45.65625 32.71875 45.558594 L 44.71875 42.257812 C 45.203125 42.125 45.550781 41.703125 45.59375 41.203125 L 46.859375 26.503906 C 46.890625 26.140625 46.757812 25.78125 46.492188 25.527344 C 46.226562 25.277344 45.859375 25.160156 45.496094 25.210938 L 38.398438 26.21875 L 38.398438 19.199219 L 46.386719 19.199219 C 47.007812 19.199219 47.527344 18.722656 47.582031 18.101562 L 47.996094 13.304688 C 48.023438 12.96875 47.910156 12.636719 47.683594 12.390625 C 47.457031 12.140625 47.136719 12 46.800781 12 Z M 24 14.398438 L 26.398438 14.398438 L 26.398438 42.824219 L 15.601562 39.828125 L 15.601562 36.382812 L 22.480469 38.289062 C 22.839844 38.390625 23.226562 38.316406 23.527344 38.089844 C 23.824219 37.863281 24 37.507812 24 37.132812 Z M 33.601562 14.398438 L 45.492188 14.398438 L 45.285156 16.800781 L 37.199219 16.800781 C 36.539062 16.800781 36 17.335938 36 18 L 36 27.601562 C 36 27.949219 36.152344 28.277344 36.414062 28.507812 C 36.675781 28.734375 37.023438 28.835938 37.367188 28.789062 L 44.339844 27.800781 L 43.273438 40.164062 L 33.601562 42.824219 L 33.601562 39.792969 L 40.820312 37.808594 C 41.3125 37.675781 41.664062 37.242188 41.699219 36.734375 L 41.996094 32.234375 C 42.023438 31.867188 41.878906 31.507812 41.605469 31.261719 C 41.332031 31.015625 40.957031 30.90625 40.597656 30.96875 L 33.601562 32.175781 Z M 33.601562 14.398438 "/>
</g>
</svg>
