<?xml version="1.0" encoding="UTF-8"?>
<svg xmlns="http://www.w3.org/2000/svg" xmlns:xlink="http://www.w3.org/1999/xlink" viewBox="0 0 60 60" width="60px" height="60px">
<g id="surface8757926">
<path style=" stroke:none;fill-rule:nonzero;fill:rgb(100%,100%,100%);fill-opacity:1;" d="M 10.800781 4.800781 C 7.5 4.800781 4.800781 7.5 4.800781 10.800781 L 4.800781 49.199219 C 4.800781 52.5 7.5 55.199219 10.800781 55.199219 L 49.199219 55.199219 C 52.5 55.199219 55.199219 52.5 55.199219 49.199219 L 55.199219 10.800781 C 55.199219 7.5 52.5 4.800781 49.199219 4.800781 Z M 10.800781 7.199219 L 49.199219 7.199219 C 51.203125 7.199219 52.800781 8.796875 52.800781 10.800781 L 52.800781 49.199219 C 52.800781 51.203125 51.203125 52.800781 49.199219 52.800781 L 10.800781 52.800781 C 8.796875 52.800781 7.199219 51.203125 7.199219 49.199219 L 7.199219 10.800781 C 7.199219 8.796875 8.796875 7.199219 10.800781 7.199219 Z M 16.800781 13.214844 C 15.484375 13.214844 14.304688 13.605469 13.425781 14.34375 C 12.550781 15.082031 12.015625 16.179688 12.015625 17.359375 C 12.015625 19.601562 13.957031 21.347656 16.429688 21.519531 C 16.429688 21.519531 16.433594 21.523438 16.433594 21.523438 C 16.550781 21.5625 16.675781 21.585938 16.800781 21.585938 C 19.527344 21.585938 21.585938 19.675781 21.585938 17.359375 C 21.585938 17.339844 21.585938 17.316406 21.582031 17.296875 C 21.460938 15.015625 19.429688 13.214844 16.800781 13.214844 Z M 16.800781 15.585938 C 18.46875 15.585938 19.128906 16.332031 19.203125 17.390625 C 19.1875 18.417969 18.550781 19.214844 16.800781 19.214844 C 15.136719 19.214844 14.386719 18.363281 14.386719 17.359375 C 14.386719 16.859375 14.570312 16.480469 14.953125 16.15625 C 15.335938 15.835938 15.953125 15.585938 16.800781 15.585938 Z M 13.199219 22.800781 C 12.539062 22.800781 12 23.335938 12 24 L 12 46.800781 C 12 47.460938 12.539062 48 13.199219 48 L 20.398438 48 C 21.0625 48 21.601562 47.460938 21.601562 46.800781 L 21.601562 24 C 21.601562 23.335938 21.0625 22.800781 20.398438 22.800781 Z M 24 22.800781 C 23.335938 22.800781 22.800781 23.335938 22.800781 24 L 22.800781 46.800781 C 22.800781 47.460938 23.335938 48 24 48 L 31.199219 48 C 31.863281 48 32.398438 47.460938 32.398438 46.800781 L 32.398438 34.800781 C 32.398438 33.804688 32.671875 32.8125 33.148438 32.164062 C 33.628906 31.515625 34.230469 31.128906 35.378906 31.148438 C 36.5625 31.167969 37.1875 31.574219 37.660156 32.210938 C 38.136719 32.847656 38.398438 33.800781 38.398438 34.800781 L 38.398438 46.800781 C 38.398438 47.460938 38.9375 48 39.601562 48 L 46.800781 48 C 47.460938 48 48 47.460938 48 46.800781 L 48 33.914062 C 48 30.359375 46.949219 27.546875 45.144531 25.640625 C 43.339844 23.734375 40.828125 22.800781 38.175781 22.800781 C 35.652344 22.800781 33.734375 23.644531 32.398438 24.507812 L 32.398438 24 C 32.398438 23.335938 31.863281 22.800781 31.199219 22.800781 Z M 14.398438 25.199219 L 19.199219 25.199219 L 19.199219 45.601562 L 14.398438 45.601562 Z M 25.199219 25.199219 L 30 25.199219 L 30 27.074219 C 30 27.589844 30.332031 28.046875 30.820312 28.210938 C 31.308594 28.375 31.847656 28.207031 32.160156 27.792969 C 32.160156 27.792969 34.042969 25.199219 38.175781 25.199219 C 40.277344 25.199219 42.082031 25.898438 43.402344 27.289062 C 44.71875 28.683594 45.601562 30.824219 45.601562 33.914062 L 45.601562 45.601562 L 40.800781 45.601562 L 40.800781 34.800781 C 40.800781 33.398438 40.464844 31.953125 39.589844 30.777344 C 38.710938 29.597656 37.238281 28.78125 35.421875 28.75 C 33.59375 28.714844 32.097656 29.550781 31.21875 30.742188 C 30.339844 31.933594 30 33.394531 30 34.800781 L 30 45.601562 L 25.199219 45.601562 Z M 25.199219 25.199219 "/>
</g>
</svg>
