<?xml version="1.0" encoding="UTF-8"?>
<svg xmlns="http://www.w3.org/2000/svg" xmlns:xlink="http://www.w3.org/1999/xlink" viewBox="0 0 60 60" width="60px" height="60px">
<g id="surface12827084">
<path style=" stroke:none;fill-rule:nonzero;fill:rgb(100%,100%,100%);fill-opacity:1;" d="M 29.988281 5.625 C 29.304688 5.625 28.621094 5.792969 28.03125 6.128906 L 9.449219 16.855469 C 8.25 17.550781 7.5 18.863281 7.5 20.25 L 7.5 39.710938 C 7.5 41.117188 8.25 42.414062 9.449219 43.105469 L 14.328125 45.917969 C 16.6875 47.082031 17.53125 47.078125 18.601562 47.078125 C 22.105469 47.078125 24.109375 44.960938 24.109375 41.285156 L 24.109375 21.207031 C 24.109375 20.90625 23.871094 20.660156 23.570312 20.660156 L 21.226562 20.660156 C 20.90625 20.660156 20.679688 20.90625 20.679688 21.207031 L 20.679688 41.269531 C 20.679688 42.917969 18.976562 44.53125 16.21875 43.160156 L 11.117188 40.21875 C 10.929688 40.125 10.816406 39.917969 10.816406 39.710938 L 10.816406 20.269531 C 10.816406 20.042969 10.929688 19.855469 11.117188 19.742188 L 29.699219 9.019531 C 29.867188 8.90625 30.09375 8.90625 30.28125 9.019531 L 48.863281 19.742188 C 49.050781 19.855469 49.164062 20.046875 49.164062 20.25 L 49.164062 39.710938 C 49.164062 39.917969 49.050781 40.125 48.882812 40.21875 L 30.28125 50.960938 C 30.113281 51.054688 29.867188 51.054688 29.699219 50.960938 L 24.917969 48.132812 C 24.785156 48.039062 24.601562 48.019531 24.46875 48.09375 C 23.140625 48.84375 22.894531 48.9375 21.65625 49.367188 C 21.359375 49.460938 20.890625 49.648438 21.828125 50.175781 L 28.03125 53.851562 C 28.628906 54.1875 29.308594 54.375 29.980469 54.375 C 30.675781 54.375 31.347656 54.1875 31.949219 53.851562 L 50.550781 43.105469 C 51.75 42.414062 52.5 41.117188 52.5 39.710938 L 52.5 20.269531 C 52.5 18.863281 51.75 17.570312 50.550781 16.875 L 31.949219 6.128906 C 31.359375 5.792969 30.671875 5.625 29.988281 5.625 Z M 34.988281 20.636719 C 29.679688 20.636719 26.515625 22.882812 26.515625 26.632812 C 26.515625 30.703125 29.660156 31.828125 34.761719 32.332031 C 40.855469 32.933594 41.324219 33.835938 41.324219 35.035156 C 41.324219 37.097656 39.65625 37.980469 35.738281 37.980469 C 30.808594 37.980469 29.71875 36.742188 29.363281 34.304688 C 29.324219 34.039062 29.101562 33.851562 28.839844 33.851562 L 26.417969 33.851562 C 26.117188 33.851562 25.894531 34.097656 25.894531 34.378906 C 25.894531 37.511719 27.601562 41.238281 35.738281 41.238281 C 41.625 41.238281 45 38.917969 45 34.867188 C 45 30.855469 42.28125 29.785156 36.582031 29.015625 C 30.785156 28.265625 30.203125 27.871094 30.203125 26.519531 C 30.203125 25.394531 30.710938 23.917969 34.988281 23.917969 C 38.792969 23.917969 40.21875 24.738281 40.800781 27.308594 C 40.855469 27.550781 41.0625 27.742188 41.324219 27.742188 L 43.742188 27.742188 C 43.894531 27.742188 44.023438 27.667969 44.136719 27.554688 C 44.230469 27.460938 44.285156 27.308594 44.265625 27.140625 C 43.890625 22.714844 40.949219 20.636719 34.988281 20.636719 Z M 34.988281 20.636719 "/>
</g>
</svg>
