<?xml version="1.0" encoding="UTF-8"?>
<svg xmlns="http://www.w3.org/2000/svg" xmlns:xlink="http://www.w3.org/1999/xlink" viewBox="0 0 60 60" width="60px" height="60px">
<g id="surface12865264">
<path style=" stroke:none;fill-rule:nonzero;fill:rgb(100%,100%,100%);fill-opacity:1;" d="M 30 14.398438 C 22.210938 14.398438 15.144531 16.03125 9.929688 18.753906 C 4.710938 21.476562 1.199219 25.402344 1.199219 30 C 1.199219 34.597656 4.710938 38.523438 9.929688 41.246094 C 15.144531 43.96875 22.210938 45.601562 30 45.601562 C 37.789062 45.601562 44.855469 43.96875 50.070312 41.246094 C 55.289062 38.523438 58.800781 34.597656 58.800781 30 C 58.800781 25.402344 55.289062 21.476562 50.070312 18.753906 C 44.855469 16.03125 37.789062 14.398438 30 14.398438 Z M 30 16.800781 C 37.453125 16.800781 44.1875 18.390625 48.960938 20.882812 C 53.734375 23.371094 56.398438 26.644531 56.398438 30 C 56.398438 33.355469 53.734375 36.628906 48.960938 39.117188 C 44.1875 41.609375 37.453125 43.199219 30 43.199219 C 22.546875 43.199219 15.8125 41.609375 11.039062 39.117188 C 6.265625 36.628906 3.601562 33.355469 3.601562 30 C 3.601562 26.644531 6.265625 23.371094 11.039062 20.882812 C 15.8125 18.390625 22.546875 16.800781 30 16.800781 Z M 27.007812 19.199219 L 24 33.601562 L 27.148438 33.601562 L 28.667969 26.398438 L 31.1875 26.398438 C 31.988281 26.398438 32.523438 26.53125 32.769531 26.796875 C 33.015625 27.066406 33.066406 27.570312 32.925781 28.296875 L 31.777344 33.601562 L 34.972656 33.601562 L 36.21875 27.867188 C 36.488281 26.492188 36.285156 25.484375 35.621094 24.871094 C 34.941406 24.25 33.746094 24 31.964844 24 L 29.15625 24 L 30.15625 19.199219 Z M 13.199219 24 L 10.765625 37.199219 L 13.941406 37.199219 L 14.574219 33.601562 L 16.550781 33.601562 C 20.6875 33.601562 22.9375 32.644531 23.773438 29.09375 C 24.496094 26.042969 22.648438 24 19.597656 24 Z M 38.398438 24 L 35.96875 37.199219 L 39.140625 37.199219 L 39.773438 33.601562 L 41.75 33.601562 C 45.886719 33.601562 48.136719 32.644531 48.976562 29.09375 C 49.695312 26.042969 47.851562 24 44.796875 24 Z M 15.929688 26.398438 L 18.398438 26.398438 C 20.453125 26.398438 20.882812 27.324219 20.773438 28.351562 C 20.5 31 18.847656 31.199219 17.078125 31.199219 L 15.019531 31.199219 Z M 41.128906 26.398438 L 43.597656 26.398438 C 45.652344 26.398438 46.082031 27.324219 45.976562 28.351562 C 45.699219 31 44.046875 31.199219 42.277344 31.199219 L 40.21875 31.199219 Z M 41.128906 26.398438 "/>
</g>
</svg>
