<?xml version="1.0" encoding="UTF-8"?>
<svg xmlns="http://www.w3.org/2000/svg" xmlns:xlink="http://www.w3.org/1999/xlink" viewBox="0 0 60 60" width="60px" height="60px">
<g id="surface12938324">
<path style=" stroke:none;fill-rule:nonzero;fill:rgb(100%,100%,100%);fill-opacity:1;" d="M 27.421875 6.964844 C 24.75 6.964844 21.925781 7.464844 19.257812 8.410156 C 16.0625 9.546875 10.023438 12.089844 5.464844 16.355469 C 0.832031 20.6875 -0.308594 24.855469 0.164062 27.3125 C 1.054688 31.917969 5.480469 35.070312 8.84375 37.390625 C 6.386719 38.894531 3.71875 40.96875 2.648438 43.332031 C 1.640625 45.5625 1.585938 47.855469 2.492188 49.796875 C 3.167969 51.246094 4.324219 52.320312 5.582031 52.671875 C 6.453125 52.914062 7.355469 53.035156 8.257812 53.035156 C 11.832031 53.035156 15.359375 51.085938 17.464844 47.949219 C 17.777344 47.476562 18.050781 46.988281 18.285156 46.488281 C 18.410156 46.640625 18.546875 46.785156 18.683594 46.914062 C 19.832031 48.003906 21.199219 48.003906 21.648438 48.003906 C 23.035156 48.003906 24.011719 47.402344 24.71875 46.65625 C 25.304688 47.046875 25.996094 47.253906 26.742188 47.253906 C 26.832031 47.253906 26.925781 47.253906 27.015625 47.242188 C 28.503906 47.0625 30.113281 45.605469 30.113281 45.605469 C 30.175781 45.660156 30.238281 45.707031 30.308594 45.757812 C 30.941406 46.238281 31.738281 46.46875 32.742188 46.46875 C 32.910156 46.46875 33.082031 46.464844 33.253906 46.453125 C 34.484375 46.371094 35.410156 46.078125 35.992188 45.832031 C 36.578125 45.617188 37.425781 45.242188 38.269531 44.617188 C 38.476562 44.464844 38.671875 44.308594 38.855469 44.140625 C 39.226562 44.367188 39.648438 44.53125 40.105469 44.621094 C 40.328125 44.667969 40.5625 44.691406 40.800781 44.691406 C 41.433594 44.691406 42.117188 44.535156 42.886719 44.21875 C 43.515625 44.003906 44.417969 43.617188 45.320312 42.953125 C 47.410156 41.417969 48.429688 39.589844 48.34375 37.527344 C 48.339844 37.464844 48.335938 37.402344 48.332031 37.335938 C 48.640625 37.300781 48.957031 37.285156 49.285156 37.285156 C 49.695312 37.285156 50.121094 37.3125 50.558594 37.363281 C 53.421875 37.699219 54.035156 39.050781 54.027344 39.496094 C 54.007812 39.613281 53.804688 39.804688 53.613281 39.921875 C 52.402344 40.667969 51.898438 41.640625 52.113281 42.8125 C 52.34375 44.074219 53.40625 44.960938 54.695312 44.960938 C 54.941406 44.960938 55.15625 44.929688 55.335938 44.902344 C 56.871094 44.640625 59.796875 42.738281 59.929688 39.3125 C 60.007812 37.328125 59.195312 35.292969 57.699219 33.734375 C 55.816406 31.78125 53.0625 30.703125 49.933594 30.703125 L 49.859375 30.703125 C 48.570312 30.710938 47.316406 30.886719 46.109375 31.230469 L 46.074219 30.957031 C 46 30.445312 45.972656 30.25 46.03125 29.804688 C 46.085938 29.402344 46.328125 28.675781 46.449219 28.324219 C 46.617188 27.835938 46.738281 27.480469 46.695312 26.957031 C 46.613281 25.9375 45.765625 24.203125 43.105469 24.183594 L 43.027344 24.183594 C 40.664062 24.183594 39.203125 24.871094 38.6875 26.222656 C 38.625 26.394531 38.546875 26.617188 38.46875 26.875 C 37.914062 26.292969 37.027344 25.835938 35.667969 25.824219 L 35.59375 25.824219 C 35.308594 25.824219 35.042969 25.835938 34.785156 25.855469 C 38.195312 22.695312 40.371094 18.160156 39.261719 13.8125 C 38.1875 9.585938 33.648438 6.964844 27.421875 6.964844 Z M 27.417969 9.351562 C 32.207031 9.351562 36.121094 11.140625 36.953125 14.40625 C 38.167969 19.175781 34.023438 24.882812 28.71875 26.933594 C 25.964844 28 23.484375 28.347656 21.578125 28.347656 C 20.207031 28.347656 19.132812 28.167969 18.460938 27.945312 C 16.628906 27.347656 15.558594 26.144531 15.296875 25.460938 C 15.191406 25.195312 15.015625 24.746094 15.296875 24.59375 C 15.34375 24.566406 15.382812 24.546875 15.425781 24.546875 C 15.535156 24.546875 15.667969 24.660156 15.996094 25.027344 C 16.378906 25.449219 17.773438 26.492188 20.359375 26.492188 C 20.722656 26.492188 21.113281 26.476562 21.523438 26.429688 C 30.277344 25.445312 35.550781 18.644531 33.886719 14.984375 C 33.273438 13.640625 31.125 12.683594 28.003906 12.683594 C 25.175781 12.683594 21.546875 13.472656 17.539062 15.46875 C 7.25 20.597656 6.691406 24.824219 6.605469 26.429688 C 6.363281 30.84375 12.054688 33.167969 15.132812 36.453125 C 15.175781 36.496094 15.214844 36.539062 15.253906 36.582031 C 15.832031 36.265625 16.4375 35.929688 17.035156 35.605469 C 18.585938 34.75 20.046875 33.949219 20.734375 33.578125 C 21.816406 32.003906 24.019531 30.265625 25.605469 30.265625 C 28.144531 30.265625 27.269531 33.914062 27.269531 33.914062 C 27.269531 33.914062 27.320312 33.746094 27.390625 33.742188 C 27.445312 33.742188 27.625 33.460938 28.0625 33.460938 C 28.191406 33.460938 28.34375 33.484375 28.527344 33.550781 C 29.332031 33.847656 29.148438 34.410156 29.152344 34.46875 C 29.164062 34.582031 28.203125 37.824219 27.800781 39.902344 C 27.609375 40.894531 27.722656 41.617188 27.777344 41.617188 C 27.855469 41.617188 28.015625 41.363281 28.167969 41.089844 L 28.164062 41.082031 C 28.164062 41.082031 28.277344 40.878906 28.464844 40.511719 C 28.488281 40.460938 28.503906 40.433594 28.503906 40.433594 C 28.726562 40 29.035156 39.363281 29.394531 38.574219 C 30.101562 37.019531 32.789062 31.027344 33.015625 30.367188 C 33.246094 29.703125 33.363281 29.015625 33.476562 28.722656 C 33.585938 28.433594 34.503906 28.214844 35.589844 28.214844 L 35.648438 28.214844 C 36.757812 28.226562 36.871094 28.695312 36.878906 28.796875 C 36.886719 28.894531 36.351562 30.207031 36.226562 31.136719 C 36.105469 32.066406 36.222656 32.53125 36.324219 33.3125 C 36.390625 33.824219 36.710938 34.46875 37.085938 35.203125 C 38.234375 33.324219 40.257812 29.730469 40.453125 28.722656 C 40.585938 28.035156 40.800781 27.375 40.914062 27.082031 C 41.023438 26.792969 41.941406 26.574219 43.027344 26.574219 L 43.082031 26.574219 C 44.195312 26.582031 44.308594 27.054688 44.316406 27.15625 C 44.324219 27.253906 43.785156 28.566406 43.664062 29.496094 C 43.542969 30.425781 43.660156 30.890625 43.761719 31.667969 C 43.847656 32.335938 44.363281 33.234375 44.875 34.257812 C 46.273438 33.566406 47.941406 33.101562 49.867188 33.09375 L 49.929688 33.09375 C 54.871094 33.09375 57.660156 36.304688 57.542969 39.226562 C 57.457031 41.53125 55.335938 42.484375 54.941406 42.550781 C 54.847656 42.566406 54.761719 42.578125 54.695312 42.578125 C 54.5625 42.578125 54.488281 42.53125 54.460938 42.382812 C 54.429688 42.226562 54.535156 42.15625 54.871094 41.949219 C 55.207031 41.742188 56.210938 41.050781 56.386719 39.800781 C 56.566406 38.546875 55.628906 35.554688 50.835938 34.996094 C 50.292969 34.929688 49.777344 34.902344 49.285156 34.902344 C 47.769531 34.902344 46.519531 35.1875 45.496094 35.613281 C 45.746094 36.265625 45.933594 36.941406 45.960938 37.625 C 46.023438 39.128906 44.984375 40.238281 43.90625 41.03125 C 43.28125 41.492188 42.605469 41.800781 42.046875 41.988281 C 41.671875 42.148438 41.195312 42.308594 40.800781 42.308594 C 40.722656 42.308594 40.648438 42.300781 40.578125 42.285156 C 39.640625 42.097656 39.144531 41.269531 39.78125 39.4375 C 40.125 38.449219 41.117188 36.941406 42.710938 35.640625 C 42.347656 34.890625 41.941406 34.128906 41.734375 33.425781 C 41.328125 32.042969 41.203125 31.207031 41.203125 31.207031 C 41.203125 31.207031 39.882812 33.9375 38.183594 36.421875 C 38.085938 36.566406 37.988281 36.707031 37.890625 36.847656 C 38.226562 37.621094 38.488281 38.441406 38.523438 39.269531 C 38.585938 40.769531 37.933594 41.90625 36.859375 42.699219 C 36.273438 43.128906 35.652344 43.425781 35.117188 43.613281 C 34.773438 43.761719 34.078125 44.007812 33.089844 44.074219 C 32.972656 44.082031 32.855469 44.089844 32.738281 44.089844 C 32.332031 44.089844 31.96875 44.03125 31.738281 43.859375 C 31.339844 43.558594 31.292969 43.183594 31.496094 42.675781 C 31.671875 42.242188 32.980469 40.746094 34.082031 39.4375 C 34.382812 39.078125 34.671875 38.710938 34.929688 38.367188 C 34.925781 38.359375 34.925781 38.351562 34.925781 38.351562 C 34.925781 38.351562 35.125 38.097656 35.449219 37.648438 C 35.046875 36.785156 34.539062 35.882812 34.296875 35.070312 C 33.890625 33.6875 33.769531 32.847656 33.769531 32.847656 C 33.769531 32.847656 32.433594 36.273438 31.039062 39.003906 C 29.964844 41.121094 29.242188 42.402344 28.917969 42.964844 C 28.917969 42.980469 28.914062 42.988281 28.914062 42.988281 C 28.914062 42.988281 28.867188 43.070312 28.785156 43.199219 C 28.742188 43.265625 28.722656 43.304688 28.722656 43.304688 C 28.722656 43.304688 28.722656 43.296875 28.71875 43.292969 C 28.359375 43.828125 27.546875 44.871094 26.742188 44.871094 C 24.53125 44.871094 25.34375 40.378906 25.34375 40.378906 C 25.34375 40.378906 24.695312 42.042969 23.96875 43.472656 C 23.375 44.636719 22.832031 45.621094 21.648438 45.621094 C 21.308594 45.621094 20.769531 45.609375 20.320312 45.183594 C 19.304688 44.21875 18.527344 41.769531 18.679688 39.875 C 18.808594 38.261719 19.058594 37.144531 19.398438 36.210938 C 18.789062 36.542969 18.089844 36.933594 17.375 37.351562 C 17.007812 37.566406 16.640625 37.785156 16.277344 38 C 16.289062 38.019531 16.300781 38.042969 16.3125 38.066406 C 17.222656 39.820312 17.460938 43.667969 15.480469 46.621094 C 13.875 49.019531 11.148438 50.65625 8.257812 50.65625 C 7.582031 50.65625 6.898438 50.566406 6.21875 50.375 C 5.0625 50.054688 3.308594 47.65625 4.820312 44.316406 C 6.152344 41.371094 11.476562 38.582031 12.878906 37.890625 C 12.996094 37.824219 13.128906 37.753906 13.265625 37.679688 C 10.46875 35.230469 3.480469 31.933594 2.5 26.863281 C 2.226562 25.433594 2.894531 22.019531 7.085938 18.097656 C 10.613281 14.796875 15.523438 12.273438 20.054688 10.660156 C 22.546875 9.773438 25.085938 9.351562 27.417969 9.351562 Z M 28.011719 15.0625 C 30.566406 15.0625 31.609375 15.804688 31.730469 15.988281 C 31.898438 16.359375 31.859375 17.191406 31.210938 18.335938 C 29.824219 20.78125 26.207031 23.5 21.261719 24.054688 C 20.953125 24.089844 20.652344 24.109375 20.363281 24.109375 C 18.515625 24.109375 17.746094 23.402344 17.738281 23.394531 C 17.308594 22.921875 16.621094 22.160156 15.429688 22.160156 C 14.988281 22.160156 14.554688 22.277344 14.144531 22.503906 C 13.796875 22.699219 12.101562 23.789062 13.070312 26.300781 C 13.59375 27.664062 15.230469 29.394531 17.71875 30.210938 C 18.382812 30.429688 19.199219 30.582031 20.09375 30.664062 C 19.730469 31.023438 19.410156 31.386719 19.136719 31.730469 C 18.363281 32.15625 17.15625 32.816406 15.890625 33.511719 L 15.652344 33.640625 C 14.878906 32.957031 14.050781 32.324219 13.246094 31.703125 C 10.613281 29.679688 8.898438 28.230469 8.988281 26.554688 C 9.179688 23.015625 14.324219 19.730469 18.605469 17.597656 C 21.886719 15.964844 25.226562 15.0625 28.011719 15.0625 Z M 31.0625 28.484375 C 31.042969 28.5625 31.027344 28.644531 31.003906 28.726562 C 30.9375 29.003906 30.859375 29.3125 30.765625 29.585938 C 30.6875 29.800781 30.355469 30.570312 29.914062 31.566406 C 29.847656 31.53125 29.78125 31.492188 29.710938 31.460938 C 29.589844 30.761719 29.335938 30.042969 28.863281 29.421875 C 29.101562 29.335938 29.339844 29.246094 29.582031 29.152344 C 30.082031 28.960938 30.578125 28.738281 31.0625 28.484375 Z M 25.550781 32.421875 C 25.140625 32.421875 24.46875 32.78125 23.84375 33.476562 C 23.308594 34.082031 22.390625 35.632812 21.964844 36.929688 C 21.109375 39.511719 21.476562 42.132812 22.082031 42.289062 C 22.101562 42.296875 22.121094 42.296875 22.140625 42.296875 C 22.847656 42.296875 23.960938 38.992188 24.496094 37.679688 C 24.84375 36.832031 26.191406 33.085938 25.894531 32.585938 C 25.832031 32.476562 25.710938 32.421875 25.550781 32.421875 Z M 43.476562 36.671875 C 42.582031 37.460938 42.066406 38.289062 41.839844 38.78125 C 41.265625 40.035156 41.238281 40.4375 41.410156 40.5625 C 42.25 40.261719 43.628906 39.535156 43.640625 37.597656 C 43.644531 37.308594 43.582031 36.996094 43.476562 36.671875 Z M 14.578125 38.804688 C 14.492188 38.855469 14.410156 38.90625 14.332031 38.953125 L 14.332031 38.957031 C 14.332031 38.957031 14.296875 38.976562 14.226562 39.015625 C 13.8125 39.261719 13.472656 39.46875 13.242188 39.605469 C 12.226562 40.242188 10.691406 41.273438 9.507812 42.394531 C 7.558594 44.230469 7.148438 46.78125 8.175781 47.375 C 8.398438 47.503906 8.6875 47.566406 9.019531 47.566406 C 10.121094 47.566406 11.710938 46.871094 12.933594 45.542969 C 14.597656 43.722656 15.285156 41.421875 14.578125 38.804688 Z M 36.203125 39.105469 C 35.855469 39.558594 35.539062 39.960938 35.265625 40.304688 C 34.792969 40.890625 33.597656 42.171875 33.597656 42.171875 C 33.597656 42.171875 33.429688 42.335938 33.5 42.378906 C 33.527344 42.390625 33.554688 42.398438 33.589844 42.398438 C 33.703125 42.398438 33.871094 42.332031 34.050781 42.238281 C 34.714844 41.820312 36.203125 40.78125 36.207031 39.238281 C 36.207031 39.195312 36.207031 39.152344 36.203125 39.105469 Z M 36.203125 39.105469 "/>
</g>
</svg>
