<?xml version="1.0" encoding="UTF-8"?>
<svg xmlns="http://www.w3.org/2000/svg" xmlns:xlink="http://www.w3.org/1999/xlink" viewBox="0 0 60 60" width="60px" height="60px">
<g id="surface12883777">
<path style=" stroke:none;fill-rule:nonzero;fill:rgb(100%,100%,100%);fill-opacity:1;" d="M 6 4.800781 C 5.335938 4.800781 4.800781 5.335938 4.800781 6 L 4.800781 54 C 4.800781 54.664062 5.335938 55.199219 6 55.199219 L 54 55.199219 C 54.664062 55.199219 55.199219 54.664062 55.199219 54 L 55.199219 6 C 55.199219 5.335938 54.664062 4.800781 54 4.800781 Z M 7.199219 7.199219 L 52.800781 7.199219 L 52.800781 52.800781 L 7.199219 52.800781 Z M 18 27.601562 L 18 31.734375 L 24 31.734375 L 24 50.398438 L 28.800781 50.398438 L 28.800781 31.734375 L 34.800781 31.734375 L 34.800781 27.601562 Z M 44.03125 27.613281 C 40.292969 27.597656 36.019531 28.730469 36.019531 33.988281 C 36.019531 40.863281 45.285156 40.867188 45.285156 43.96875 C 45.285156 44.261719 45.410156 46.398438 42.140625 46.398438 C 38.871094 46.398438 36.144531 44.34375 36.144531 44.34375 L 36.144531 49.332031 C 36.144531 49.332031 50.402344 53.945312 50.402344 43.546875 C 50.402344 36.796875 41.050781 37.132812 41.050781 33.78125 C 41.050781 32.480469 41.972656 31.265625 44.53125 31.265625 C 47.089844 31.265625 49.351562 32.773438 49.351562 32.773438 L 49.519531 28.328125 C 49.519531 28.328125 46.9375 27.625 44.03125 27.613281 Z M 44.03125 27.613281 "/>
</g>
</svg>
